<svg
  width="190"
  height="190"
  viewBox="0 0 190 190"
  fill="none"
  xmlns="http://www.w3.org/2000/svg"
>
  <path
    fill-rule="evenodd"
    clip-rule="evenodd"
    d="M0 94.9794C0 94.9862 0 94.9932 0 95C0 95.6754 0.00708008 96.3491 0.0209961 97.0211C50.8828 98.0826 91.9175 139.117 92.979 189.979C93.6511 189.993 94.3247 190 95 190C95.6753 190 96.3489 189.993 97.021 189.979C98.0825 139.117 139.117 98.0826 189.979 97.0211C189.993 96.3491 190 95.6754 190 95V94.9794C138.463 93.915 97.011 51.8099 97 0.0206299C96.335 0.00689697 95.6682 0 95 0C94.3318 0 93.665 0.00689697 93 0.0206299C92.989 51.8099 51.5369 93.915 0 94.9794Z"
    fill="currentColor" 
  />
</svg>